P1
3 19

010
010
010
111
000
111
000
111
010
010
010
111
000
111
000
111
010
010
010
