P1
6 21
111111
000000
000000
000000
000000
000000
000000
111111
000000
000000
000000
000000
000001
000010
111111
000000
000000
000000
000001
000001
000110
